<?xml version="1.0" standalone="no"?>
<!DOCTYPE svg PUBLIC "-//W3C//DTD SVG 1.1//EN" "http://www.w3.org/Graphics/SVG/1.1/DTD/svg11.dtd">
<svg width="100%" height="100%" viewBox="0 0 2480 3507" version="1.1" xmlns="http://www.w3.org/2000/svg" xmlns:xlink="http://www.w3.org/1999/xlink" xml:space="preserve" style="fill-rule:evenodd;clip-rule:evenodd;stroke-linejoin:round;stroke-miterlimit:1.41421;">
    <g id="Layer1">
        <path d="M1249.15,2868.49L810.771,3494.57L628.129,3366.73L1113.08,2674.16L680.229,2056L363.598,2277.72L267.768,2239.77L63.4563,1947.92L63.3571,1848.92L379.973,1627.2L363.268,1603.34L545.909,1475.51L562.587,1499.32L877.234,1278.99L975.278,1310.9L1178.23,1600.77L1177.48,1707.8L862.837,1928.12L1249.15,2479.83L1634.5,1929.5L1317.9,1707.8L1320.77,1604.83L1525.12,1312.98L1618.14,1278.99L1934.74,1500.7L1951.42,1476.89L2134.02,1604.73L2117.33,1628.57L2431.99,1848.92L2435.52,1951.98L2232.6,2241.75L2131.78,2277.72L1817.1,2057.36L1385.22,2674.16L1869.19,3365.35L1686.59,3493.19L1249.15,2868.49Z" style="fill:white;"/>
        <path d="M1118.23,1281.39C1033.11,1199.87 928.097,1067.42 933.359,913.608C941.881,665.361 1136.12,599.756 1203.18,491.738C1280.54,367.069 1214.08,23.7865 1214.08,23.7865C1214.08,23.7865 1612.06,370.042 1596.44,825.606C1593,925.786 1507.46,1013.2 1428.32,1087.4C1446.11,860.23 1270.27,670.217 1270.27,670.217C1270.27,670.217 1285.63,854.346 1237.86,915.49C1196.47,968.408 1090.7,991.797 1072.07,1121.72C1064.6,1173.73 1087.43,1230.87 1118.23,1281.39Z" style="fill:white;"/>
    </g>
</svg>
