<?xml version="1.0" standalone="no"?>
<!DOCTYPE svg PUBLIC "-//W3C//DTD SVG 1.1//EN" "http://www.w3.org/Graphics/SVG/1.1/DTD/svg11.dtd">
<svg width="100%" height="100%" viewBox="0 0 2480 3507" version="1.1" xmlns="http://www.w3.org/2000/svg" xmlns:xlink="http://www.w3.org/1999/xlink" xml:space="preserve" style="fill-rule:evenodd;clip-rule:evenodd;stroke-linejoin:round;stroke-miterlimit:1.41421;">
    <g id="Layer1">
        <path d="M759.541,1801.88L759.541,1587.38L861.45,1587.38L861.45,1625.11L802.322,1625.11L802.322,1671.75L844.807,1671.75L844.807,1709.19L802.322,1709.19L802.322,1764.15L861.45,1764.15L861.45,1801.88L759.541,1801.88ZM287.177,1697.6C287.177,1712.65 283.705,1723.55 276.779,1730.28C269.841,1737.01 258.254,1740.38 242.019,1740.38L218.252,1740.38L218.252,1801.88L175.471,1801.88L175.471,1587.38L241.128,1587.38C255.184,1587.38 266.381,1590.65 274.7,1597.18C283.018,1603.72 287.177,1614.81 287.177,1630.46L287.177,1697.6ZM117.835,1801.88L110.408,1768.31L65.2495,1768.31L57.8222,1801.88L18.0118,1801.88L18.0118,1792.97L68.2204,1587.38L107.437,1587.38L157.645,1792.97L157.645,1801.88L117.835,1801.88ZM398.884,1801.88L391.457,1768.31L346.299,1768.31L338.872,1801.88L299.061,1801.88L299.061,1792.97L349.27,1587.38L388.486,1587.38L438.695,1792.97L438.695,1801.88L398.884,1801.88ZM570.894,1746.92C570.894,1755.43 569.653,1763.26 567.177,1770.39C564.701,1777.52 561.037,1783.62 556.185,1788.67C551.332,1793.72 545.291,1797.68 538.062,1800.55C530.833,1803.42 522.468,1804.85 512.961,1804.85C504.444,1804.85 496.621,1803.66 489.491,1801.28C482.361,1798.91 476.267,1795.34 471.216,1790.59C466.166,1785.84 462.205,1779.89 459.333,1772.76C456.461,1765.63 455.028,1757.31 455.028,1747.81L455.028,1641.45C455.028,1631.94 456.461,1623.62 459.333,1616.49C462.205,1609.36 466.166,1603.42 471.216,1598.67C476.267,1593.91 482.361,1590.35 489.491,1587.97C496.621,1585.6 504.444,1584.41 512.961,1584.41C522.468,1584.41 530.833,1585.85 538.062,1588.72C545.291,1591.6 551.332,1595.56 556.185,1600.61C561.037,1605.66 564.701,1611.74 567.177,1618.87C569.653,1626 570.894,1633.82 570.894,1642.34C570.894,1645.71 570.742,1649.23 570.445,1652.9C570.148,1656.56 569.851,1660.03 569.554,1663.29C569.257,1666.56 568.861,1669.47 568.366,1672.05C567.87,1674.62 567.52,1676.6 567.329,1677.99L530.192,1679.48L528.707,1677.99C529.301,1672.05 529.744,1666.8 530.041,1662.25C530.338,1657.69 530.49,1653.43 530.49,1649.47C530.49,1646.1 530.285,1642.8 529.895,1639.53C529.493,1636.26 528.707,1633.39 527.519,1630.91C526.33,1628.44 524.693,1626.4 522.613,1624.81C520.534,1623.23 517.814,1622.44 514.447,1622.44C512.268,1622.44 510.234,1622.63 508.353,1623.03C506.471,1623.43 504.788,1624.28 503.302,1625.56C501.817,1626.85 500.628,1628.77 499.737,1631.35C498.846,1633.92 498.404,1637.29 498.404,1641.45L498.404,1747.81C498.404,1751.97 498.846,1755.33 499.737,1757.91C500.628,1760.48 501.817,1762.42 503.302,1763.71C504.788,1765 506.471,1765.83 508.353,1766.23C510.234,1766.62 512.268,1766.82 514.447,1766.82C518.012,1766.82 520.831,1765.93 522.91,1764.15C524.99,1762.37 526.627,1760.15 527.816,1757.47C529.004,1754.8 529.744,1751.87 530.041,1748.7C530.338,1745.53 530.49,1742.56 530.49,1739.79C530.49,1735.83 530.338,1731.57 530.041,1727.01C529.744,1722.46 529.301,1717.21 528.707,1711.27L530.192,1709.78L567.626,1711.27C568.22,1714.63 568.907,1719.58 569.706,1726.12C570.491,1732.66 570.894,1739.59 570.894,1746.92ZM91.9878,1677.4L88.7198,1656.9L86.9372,1656.9L83.6692,1677.4L73.271,1731.76L102.386,1731.76L91.9878,1677.4ZM373.037,1677.4L369.769,1656.9L367.98,1656.9L364.719,1677.4L354.32,1731.76L383.435,1731.76L373.037,1677.4ZM243.802,1634.32C243.802,1631.55 243.3,1629.33 242.317,1627.64C241.32,1625.96 238.943,1625.11 235.186,1625.11L218.252,1625.11L218.252,1702.65L235.186,1702.65C238.943,1702.65 241.32,1701.82 242.317,1700.13C243.3,1698.45 243.802,1696.21 243.802,1693.44L243.802,1634.32ZM681.115,1801.88L681.115,1708.89L647.841,1708.89L647.841,1801.88L605.06,1801.88L605.06,1587.38L647.841,1587.38L647.841,1671.46L681.115,1671.46L681.115,1587.38L723.897,1587.38L723.897,1801.88L681.115,1801.88Z" style="fill:rgb(35,31,32);"/>
        <path d="M2362.52,1801.88L2355.09,1768.31L2309.94,1768.31L2302.51,1801.88L2262.7,1801.88L2262.7,1792.97L2312.91,1587.38L2352.12,1587.38L2402.34,1792.97L2402.34,1801.88L2362.52,1801.88ZM1734.49,1801.88L1734.49,1587.38L1777.27,1587.38L1777.27,1764.15L1832.82,1764.15L1832.82,1801.88L1734.49,1801.88ZM1676.85,1801.88L1669.42,1768.31L1624.26,1768.31L1616.84,1801.88L1577.03,1801.88L1577.03,1792.97L1627.24,1587.38L1666.45,1587.38L1716.66,1792.97L1716.66,1801.88L1676.85,1801.88ZM1850.64,1801.88L1850.64,1587.38L1893.42,1587.38L1893.42,1764.15L1948.99,1764.15L1948.99,1801.88L1850.64,1801.88ZM2223.49,1801.88C2217.93,1801.88 2213.48,1800.99 2210.12,1799.21C2206.75,1797.42 2204.18,1795.11 2202.39,1792.23C2200.6,1789.36 2199.42,1786.29 2198.83,1783.02C2198.23,1779.76 2197.94,1776.63 2197.94,1773.65L2197.94,1732.06C2197.94,1726.12 2197.01,1722.36 2195.12,1720.77C2193.24,1719.19 2190.51,1718.4 2186.94,1718.4L2165.85,1718.4L2165.85,1801.88L2123.07,1801.88L2123.07,1587.38L2193.78,1587.38C2202.89,1587.38 2210.47,1588.47 2216.52,1590.65C2222.56,1592.82 2227.41,1595.76 2231.07,1599.42C2234.74,1603.08 2237.31,1607.44 2238.8,1612.49C2240.28,1617.54 2241.02,1623.03 2241.02,1628.97L2241.02,1663.43C2241.02,1668.58 2240.52,1672.9 2239.53,1676.37C2238.54,1679.83 2237.31,1682.65 2235.83,1684.82C2234.34,1687 2232.7,1688.69 2230.91,1689.88C2229.13,1691.06 2227.45,1692.05 2225.86,1692.85L2221.7,1694.93C2220.71,1695.52 2219.88,1696.17 2219.18,1696.87C2218.5,1697.56 2218.14,1698.49 2218.14,1699.68C2218.14,1701.86 2219.42,1703.74 2222,1705.32L2227.65,1708.89C2230.81,1710.87 2233.78,1713.7 2236.56,1717.37C2239.33,1721.03 2240.71,1726.62 2240.71,1734.14L2240.71,1768.31L2253.79,1768.31L2253.79,1801.88L2223.49,1801.88ZM2087.42,1753.45C2087.42,1759.99 2086.48,1766.39 2084.61,1772.62C2082.72,1778.86 2079.5,1784.35 2074.94,1789.1C2070.38,1793.86 2064.25,1797.68 2056.51,1800.55C2048.8,1803.4 2039.09,1804.85 2027.41,1804.85C2016.51,1804.85 2007.26,1803.4 1999.64,1800.55C1992.01,1797.68 1985.77,1793.86 1980.92,1789.1C1976.06,1784.35 1972.5,1778.86 1970.23,1772.62C1967.95,1766.39 1966.8,1759.99 1966.8,1753.45L1966.8,1587.38L2010.17,1587.38L2010.17,1751.67C2010.17,1757.41 2011.82,1761.43 2015.09,1763.71C2018.35,1765.99 2022.45,1767.12 2027.41,1767.12C2031.96,1767.12 2035.88,1765.99 2039.15,1763.71C2042.41,1761.43 2044.04,1757.41 2044.04,1751.67L2044.04,1587.38L2087.42,1587.38L2087.42,1753.45ZM2336.68,1677.4L2333.41,1656.9L2331.63,1656.9L2328.35,1677.4L2317.96,1731.76L2347.08,1731.76L2336.68,1677.4ZM1651,1677.4L1647.74,1656.9L1645.95,1656.9L1642.68,1677.4L1632.29,1731.76L1661.4,1731.76L1651,1677.4ZM2197.63,1632.54C2197.63,1629.96 2197.05,1628.08 2195.86,1626.89C2194.66,1625.7 2192.59,1625.11 2189.62,1625.11L2165.85,1625.11L2165.85,1680.66L2189.62,1680.66C2192.19,1680.66 2194.17,1680.03 2195.56,1678.74C2196.95,1677.46 2197.63,1675.71 2197.63,1673.54L2197.63,1632.54Z" style="fill:rgb(35,31,32);"/>
        <path d="M1236.31,1749.66L1146.83,1877.46L1109.54,1851.37L1208.54,1709.99L1120.18,1583.81L1055.55,1629.07L1035.98,1621.32L994.278,1561.74L994.258,1541.54L1058.89,1496.28L1055.48,1491.41L1092.76,1465.31L1096.16,1470.17L1160.39,1425.2L1180.41,1431.71L1221.84,1490.88L1221.68,1512.73L1157.45,1557.7L1236.31,1670.32L1314.97,1557.98L1250.35,1512.73L1250.93,1491.71L1292.64,1432.14L1311.63,1425.2L1376.26,1470.46L1379.66,1465.6L1416.94,1491.69L1413.53,1496.56L1477.76,1541.54L1478.48,1562.57L1437.06,1621.72L1416.48,1629.07L1352.25,1584.09L1264.09,1709.99L1362.88,1851.08L1325.6,1877.18L1236.31,1749.66Z" style="fill:rgb(13,8,0);"/>
        <path d="M1209.59,1425.69C1192.21,1409.05 1170.78,1382.01 1171.85,1350.61C1173.59,1299.94 1213.24,1286.55 1226.93,1264.5C1242.72,1239.05 1229.15,1168.98 1229.15,1168.98C1229.15,1168.98 1310.39,1239.66 1307.2,1332.65C1306.5,1353.1 1289.04,1370.94 1272.89,1386.09C1276.52,1339.72 1240.62,1300.93 1240.62,1300.93C1240.62,1300.93 1243.76,1338.52 1234.01,1351C1225.56,1361.8 1203.97,1366.57 1200.16,1393.09C1198.64,1403.71 1203.3,1415.38 1209.59,1425.69Z" style="fill:rgb(255,159,0);"/>
        <path d="M2412.59,1646.86L2412.59,1615.42L2402.71,1615.42L2402.71,1609.23L2429.66,1609.23L2429.66,1615.42L2419.76,1615.42L2419.76,1646.86L2412.59,1646.86ZM2434.88,1646.86L2434.88,1609.23L2445.05,1609.23L2450.48,1627.5C2450.96,1629.12 2451.41,1630.75 2451.76,1632.3C2452.1,1633.86 2452.35,1635.38 2452.55,1636.87C2452.83,1635.49 2453.18,1634.03 2453.59,1632.58C2453.97,1631.09 2454.46,1629.43 2455.01,1627.6L2460.54,1609.23L2470.26,1609.23L2470.26,1646.86L2464.21,1646.86L2464.21,1615.29C2463.86,1616.67 2463.52,1618.09 2463.16,1619.47C2462.79,1620.86 2462.41,1622.24 2461.96,1623.62L2455.08,1646.86L2449.92,1646.86L2443.25,1623.62C2442.56,1621.17 2442.04,1619.4 2441.76,1618.29C2441.45,1617.15 2441.21,1616.15 2441,1615.29L2441,1646.86L2434.88,1646.86Z" style="fill:rgb(35,31,32);"/>
    </g>
</svg>
