<?xml version="1.0" standalone="no"?>
<!DOCTYPE svg PUBLIC "-//W3C//DTD SVG 1.1//EN" "http://www.w3.org/Graphics/SVG/1.1/DTD/svg11.dtd">
<svg width="100%" height="100%" viewBox="0 0 1280 720" version="1.1" xmlns="http://www.w3.org/2000/svg" xmlns:xlink="http://www.w3.org/1999/xlink" xml:space="preserve" style="fill-rule:evenodd;clip-rule:evenodd;stroke-linejoin:round;stroke-miterlimit:1.41421;">
    <g id="small-screen-logo">
        <path id="Appache_Text" d="M762.806,499.252L762.806,430.096L795.662,430.096L795.662,442.26L776.599,442.26L776.599,457.298L790.296,457.298L790.296,469.367L776.599,469.367L776.599,487.087L795.662,487.087L795.662,499.252L762.806,499.252ZM610.514,465.632C610.514,470.485 609.395,473.997 607.162,476.168C604.925,478.339 601.189,479.424 595.955,479.424L588.293,479.424L588.293,499.252L574.5,499.252L574.5,430.096L595.668,430.096C600.2,430.096 603.81,431.15 606.492,433.257C609.173,435.364 610.514,438.94 610.514,443.985L610.514,465.632ZM555.918,499.252L553.523,488.428L538.964,488.428L536.57,499.252L523.735,499.252L523.735,496.378L539.922,430.096L552.565,430.096L568.753,496.378L568.753,499.252L555.918,499.252ZM646.529,499.252L644.134,488.428L629.575,488.428L627.181,499.252L614.346,499.252L614.346,496.378L630.533,430.096L643.177,430.096L659.364,496.378L659.364,499.252L646.529,499.252ZM701.986,481.532C701.986,484.277 701.585,486.8 700.787,489.099C699.989,491.397 698.808,493.364 697.243,494.992C695.679,496.621 693.731,497.898 691.4,498.824C689.07,499.75 686.373,500.209 683.308,500.209C680.562,500.209 678.04,499.826 675.741,499.06C673.442,498.294 671.477,497.144 669.849,495.612C668.221,494.079 666.944,492.164 666.018,489.865C665.092,487.566 664.63,484.884 664.63,481.819L664.63,447.528C664.63,444.463 665.092,441.781 666.018,439.483C666.944,437.184 668.221,435.268 669.849,433.736C671.477,432.203 673.442,431.054 675.741,430.287C678.04,429.521 680.562,429.138 683.308,429.138C686.373,429.138 689.07,429.604 691.4,430.53C693.731,431.456 695.679,432.733 697.243,434.361C698.808,435.99 699.989,437.95 700.787,440.249C701.585,442.548 701.986,445.07 701.986,447.816C701.986,448.901 701.937,450.038 701.841,451.219C701.745,452.401 701.649,453.518 701.553,454.572C701.458,455.625 701.33,456.564 701.17,457.394C701.011,458.224 700.898,458.863 700.836,459.31L688.863,459.789L688.384,459.31C688.576,457.394 688.718,455.702 688.814,454.233C688.91,452.765 688.959,451.392 688.959,450.115C688.959,449.029 688.893,447.963 688.767,446.909C688.638,445.855 688.384,444.93 688.001,444.131C687.618,443.333 687.09,442.675 686.42,442.165C685.749,441.654 684.872,441.398 683.787,441.398C683.084,441.398 682.429,441.462 681.822,441.59C681.215,441.718 680.673,441.992 680.194,442.407C679.715,442.822 679.332,443.442 679.044,444.272C678.757,445.102 678.614,446.188 678.614,447.528L678.614,481.819C678.614,483.16 678.757,484.245 679.044,485.076C679.332,485.906 679.715,486.532 680.194,486.947C680.673,487.362 681.215,487.63 681.822,487.758C682.429,487.885 683.084,487.949 683.787,487.949C684.936,487.949 685.845,487.662 686.515,487.087C687.186,486.512 687.714,485.797 688.097,484.935C688.48,484.073 688.718,483.128 688.814,482.106C688.91,481.085 688.959,480.127 688.959,479.233C688.959,477.956 688.91,476.583 688.814,475.114C688.718,473.645 688.576,471.953 688.384,470.038L688.863,469.559L700.932,470.038C701.124,471.123 701.345,472.72 701.602,474.827C701.856,476.934 701.986,479.169 701.986,481.532ZM547.585,459.118L546.531,452.509L545.956,452.509L544.903,459.118L541.55,476.647L550.937,476.647L547.585,459.118ZM638.196,459.118L637.142,452.509L636.565,452.509L635.514,459.118L632.162,476.647L641.548,476.647L638.196,459.118ZM596.53,445.23C596.53,444.336 596.368,443.621 596.051,443.078C595.73,442.535 594.963,442.26 593.752,442.26L588.293,442.26L588.293,467.26L593.752,467.26C594.963,467.26 595.73,466.992 596.051,466.449C596.368,465.906 596.53,465.185 596.53,464.291L596.53,445.23ZM737.521,499.252L737.521,469.271L726.794,469.271L726.794,499.252L713.001,499.252L713.001,430.096L726.794,430.096L726.794,457.203L737.521,457.203L737.521,430.096L751.314,430.096L751.314,499.252L737.521,499.252Z" style="fill:white;"/>
        <path id="Allura_Text" d="M784.052,584.636L781.657,573.813L767.1,573.813L764.706,584.636L751.871,584.636L751.871,581.763L768.058,515.481L780.7,515.481L796.889,581.763L796.889,584.636L784.052,584.636ZM581.572,584.636L581.572,515.481L595.365,515.481L595.365,572.472L613.276,572.472L613.276,584.636L581.572,584.636ZM562.99,584.636L560.595,573.813L546.036,573.813L543.642,584.636L530.807,584.636L530.807,581.763L546.994,515.481L559.638,515.481L575.825,581.763L575.825,584.636L562.99,584.636ZM619.021,584.636L619.021,515.481L632.814,515.481L632.814,572.472L650.73,572.472L650.73,584.636L619.021,584.636ZM739.227,584.636C737.437,584.636 736.001,584.349 734.917,583.774C733.832,583.199 733.002,582.452 732.427,581.527C731.85,580.601 731.469,579.611 731.277,578.557C731.086,577.504 730.99,576.495 730.99,575.537L730.99,562.127C730.99,560.211 730.69,558.998 730.083,558.487C729.477,557.976 728.596,557.721 727.446,557.721L720.645,557.721L720.645,584.636L706.853,584.636L706.853,515.481L729.649,515.481C732.587,515.481 735.032,515.832 736.98,516.534C738.927,517.237 740.492,518.182 741.671,519.363C742.854,520.544 743.685,521.949 744.163,523.577C744.642,525.206 744.879,526.975 744.879,528.89L744.879,540.001C744.879,541.661 744.719,543.053 744.4,544.171C744.081,545.288 743.685,546.195 743.206,546.898C742.727,547.6 742.197,548.143 741.622,548.526C741.047,548.909 740.505,549.228 739.992,549.484L738.653,550.154C738.334,550.346 738.065,550.556 737.84,550.78C737.618,551.003 737.503,551.304 737.503,551.687C737.503,552.389 737.916,552.996 738.749,553.507L740.568,554.656C741.588,555.295 742.546,556.208 743.442,557.389C744.336,558.57 744.781,560.371 744.781,562.798L744.781,573.813L748.997,573.813L748.997,584.636L739.227,584.636ZM695.359,569.024C695.359,571.131 695.056,573.193 694.452,575.205C693.845,577.216 692.804,578.985 691.336,580.518C689.865,582.05 687.887,583.283 685.395,584.208C682.907,585.128 679.778,585.594 676.01,585.594C672.498,585.594 669.514,585.128 667.058,584.208C664.599,583.283 662.588,582.05 661.023,580.518C659.457,578.985 658.31,577.216 657.575,575.205C656.841,573.193 656.47,571.131 656.47,569.024L656.47,515.481L670.455,515.481L670.455,568.449C670.455,570.301 670.985,571.597 672.039,572.331C673.092,573.066 674.414,573.43 676.01,573.43C677.479,573.43 678.743,573.066 679.797,572.331C680.848,571.597 681.374,570.301 681.374,568.449L681.374,515.481L695.359,515.481L695.359,569.024ZM775.721,544.503L774.667,537.894L774.093,537.894L773.037,544.503L769.684,562.031L779.073,562.031L775.721,544.503ZM554.657,544.503L553.605,537.894L553.029,537.894L551.975,544.503L548.623,562.031L558.009,562.031L554.657,544.503ZM730.892,530.04C730.892,529.21 730.703,528.603 730.32,528.22C729.934,527.837 729.266,527.645 728.308,527.645L720.645,527.645L720.645,545.557L728.308,545.557C729.136,545.557 729.775,545.352 730.224,544.937C730.671,544.522 730.892,543.96 730.892,543.258L730.892,530.04Z" style="fill:white;"/>
        <rect x="529.701" y="505.867" width="279.386" height="2.58166" style="fill:rgb(255,159,0);"/>
        <path id="Hammers" d="M666.908,350.699L619.471,418.447L599.708,404.613L652.183,329.671L605.345,262.781L571.083,286.773L560.714,282.666L538.606,251.085L538.595,240.373L572.855,216.382L571.048,213.8L590.811,199.967L592.616,202.544L626.663,178.702L637.272,182.155L659.234,213.521L659.152,225.103L625.105,248.944L666.907,308.643L708.605,249.092L674.347,225.103L674.658,213.961L696.769,182.38L706.835,178.702L741.094,202.693L742.898,200.117L762.658,213.95L760.852,216.529L794.9,240.373L795.282,251.525L773.324,282.881L762.415,286.773L728.364,262.929L681.631,329.671L734.001,404.463L714.242,418.296L666.908,350.699Z" style="fill:white;"/>
        <path id="Flame" d="M652.741,178.962C643.53,170.141 632.167,155.808 632.736,139.165C633.658,112.303 654.676,105.203 661.932,93.515C670.304,80.0248 663.112,42.8788 663.112,42.8788C663.112,42.8788 706.178,80.3465 704.487,129.642C704.115,140.483 694.859,149.941 686.295,157.97C688.22,133.389 669.192,112.828 669.192,112.828C669.192,112.828 670.854,132.752 665.686,139.369C661.207,145.095 649.761,147.626 647.745,161.684C646.938,167.312 649.408,173.495 652.741,178.962Z" style="fill:rgb(255,159,0);"/>
        <path id="TradeMark" d="M812.97,531.674L812.97,518.626L808.869,518.626L808.869,516.056L820.052,516.056L820.052,518.626L815.946,518.626L815.946,531.674L812.97,531.674ZM822.22,531.674L822.22,516.056L826.44,516.056L828.694,523.636C828.895,524.31 829.081,524.985 829.225,525.631C829.368,526.277 829.469,526.909 829.555,527.526C829.67,526.952 829.813,526.349 829.986,525.746C830.144,525.129 830.345,524.44 830.574,523.679L832.871,516.056L836.905,516.056L836.905,531.674L834.393,531.674L834.393,518.568C834.249,519.142 834.106,519.731 833.957,520.305C833.804,520.88 833.646,521.454 833.46,522.028L830.603,531.674L828.464,531.674L825.694,522.028C825.406,521.009 825.191,520.276 825.076,519.817C824.947,519.344 824.847,518.927 824.76,518.568L824.76,531.674L822.22,531.674Z" style="fill:white;"/>
    </g>
</svg>
