<?xml version="1.0" standalone="no"?>
<!DOCTYPE svg PUBLIC "-//W3C//DTD SVG 1.1//EN" "http://www.w3.org/Graphics/SVG/1.1/DTD/svg11.dtd">
<svg width="100%" height="100%" viewBox="0 0 1278 369" version="1.1" xmlns="http://www.w3.org/2000/svg" xmlns:xlink="http://www.w3.org/1999/xlink" xml:space="preserve" style="fill-rule:evenodd;clip-rule:evenodd;stroke-linejoin:round;stroke-miterlimit:1.41421;">
    <g id="Logo">
        <path id="Appache_Text" d="M386.46,329.848L386.46,218.058L439.572,218.058L439.572,237.721L408.756,237.721L408.756,262.03L430.898,262.03L430.898,281.54L408.756,281.54L408.756,310.184L439.572,310.184L439.572,329.848L386.46,329.848ZM140.28,275.501C140.28,283.346 138.47,289.023 134.861,292.533C131.245,296.042 125.206,297.797 116.745,297.797L104.359,297.797L104.359,329.848L82.0623,329.848L82.0623,218.058L116.281,218.058C123.606,218.058 129.442,219.761 133.777,223.167C138.112,226.573 140.28,232.354 140.28,240.509L140.28,275.501ZM52.0244,329.848L48.1536,312.352L24.6187,312.352L20.7478,329.848L0,329.848L0,325.203L26.167,218.058L46.6052,218.058L72.7723,325.203L72.7723,329.848L52.0244,329.848ZM198.498,329.848L194.627,312.352L171.092,312.352L167.221,329.848L146.474,329.848L146.474,325.203L172.641,218.058L193.079,218.058L219.246,325.203L219.246,329.848L198.498,329.848ZM288.144,301.204C288.144,305.642 287.497,309.719 286.207,313.436C284.916,317.152 283.007,320.331 280.478,322.963C277.949,325.595 274.8,327.66 271.033,329.156C267.265,330.653 262.906,331.396 257.951,331.396C253.512,331.396 249.435,330.777 245.719,329.538C242.003,328.3 238.827,326.442 236.195,323.964C233.563,321.487 231.498,318.39 230.002,314.674C228.505,310.958 227.758,306.623 227.758,301.668L227.758,246.237C227.758,241.283 228.505,236.947 230.002,233.231C231.498,229.515 233.563,226.418 236.195,223.941C238.827,221.464 242.003,219.606 245.719,218.367C249.435,217.128 253.512,216.509 257.951,216.509C262.906,216.509 267.265,217.263 271.033,218.759C274.8,220.256 277.949,222.321 280.478,224.953C283.007,227.585 284.916,230.754 286.207,234.47C287.497,238.186 288.144,242.263 288.144,246.702C288.144,248.457 288.065,250.294 287.91,252.204C287.755,254.113 287.6,255.92 287.445,257.623C287.29,259.326 287.084,260.843 286.826,262.185C286.568,263.527 286.385,264.559 286.286,265.282L266.931,266.056L266.157,265.282C266.467,262.185 266.697,259.45 266.852,257.076C267.007,254.702 267.086,252.482 267.086,250.418C267.086,248.663 266.98,246.939 266.777,245.236C266.567,243.533 266.157,242.036 265.538,240.746C264.919,239.456 264.065,238.392 262.981,237.567C261.898,236.741 260.48,236.328 258.725,236.328C257.59,236.328 256.53,236.431 255.549,236.638C254.569,236.844 253.691,237.288 252.917,237.959C252.143,238.63 251.524,239.631 251.059,240.973C250.595,242.315 250.364,244.07 250.364,246.237L250.364,301.668C250.364,303.836 250.595,305.591 251.059,306.932C251.524,308.274 252.143,309.286 252.917,309.957C253.691,310.628 254.569,311.061 255.549,311.268C256.53,311.474 257.59,311.577 258.725,311.577C260.583,311.577 262.052,311.113 263.136,310.184C264.22,309.255 265.073,308.099 265.693,306.705C266.312,305.312 266.697,303.784 266.852,302.133C267.007,300.481 267.086,298.933 267.086,297.488C267.086,295.423 267.007,293.204 266.852,290.83C266.697,288.456 266.467,285.72 266.157,282.623L266.931,281.849L286.441,282.623C286.75,284.378 287.108,286.959 287.524,290.365C287.934,293.772 288.144,297.384 288.144,301.204ZM38.5538,264.972L36.8506,254.289L35.9216,254.289L34.2184,264.972L28.7992,293.307L43.973,293.307L38.5538,264.972ZM185.027,264.972L183.324,254.289L182.392,254.289L180.692,264.972L175.273,293.307L190.447,293.307L185.027,264.972ZM117.674,242.521C117.674,241.076 117.413,239.92 116.9,239.043C116.381,238.165 115.142,237.721 113.184,237.721L104.359,237.721L104.359,278.133L113.184,278.133C115.142,278.133 116.381,277.7 116.9,276.822C117.413,275.945 117.674,274.779 117.674,273.333L117.674,242.521ZM345.587,329.848L345.587,281.385L328.246,281.385L328.246,329.848L305.95,329.848L305.95,218.058L328.246,218.058L328.246,261.876L345.587,261.876L345.587,218.058L367.884,218.058L367.884,329.848L345.587,329.848Z" style="fill:white;"/>
        <path id="Allura_Text" d="M1221.88,329.848L1218.01,312.352L1194.48,312.352L1190.61,329.848L1169.86,329.848L1169.86,325.203L1196.02,218.058L1216.46,218.058L1242.63,325.203L1242.63,329.848L1221.88,329.848ZM894.569,329.848L894.569,218.058L916.865,218.058L916.865,310.184L945.819,310.184L945.819,329.848L894.569,329.848ZM864.531,329.848L860.66,312.352L837.125,312.352L833.254,329.848L812.507,329.848L812.507,325.203L838.674,218.058L859.112,218.058L885.279,325.203L885.279,329.848L864.531,329.848ZM955.106,329.848L955.106,218.058L977.402,218.058L977.402,310.184L1006.36,310.184L1006.36,329.848L955.106,329.848ZM1149.42,329.848C1146.53,329.848 1144.2,329.383 1142.45,328.455C1140.7,327.525 1139.36,326.318 1138.43,324.821C1137.49,323.324 1136.88,321.724 1136.57,320.021C1136.26,318.318 1136.1,316.687 1136.1,315.139L1136.1,293.462C1136.1,290.365 1135.62,288.404 1134.64,287.578C1133.66,286.752 1132.23,286.34 1130.38,286.34L1119.38,286.34L1119.38,329.848L1097.09,329.848L1097.09,218.058L1133.94,218.058C1138.68,218.058 1142.64,218.625 1145.79,219.761C1148.93,220.896 1151.46,222.424 1153.37,224.333C1155.28,226.243 1156.62,228.514 1157.4,231.146C1158.17,233.778 1158.55,236.638 1158.55,239.734L1158.55,257.695C1158.55,260.379 1158.3,262.629 1157.78,264.436C1157.26,266.242 1156.62,267.708 1155.85,268.843C1155.08,269.979 1154.22,270.856 1153.29,271.475C1152.36,272.095 1151.48,272.611 1150.65,273.024L1148.49,274.107C1147.97,274.417 1147.54,274.758 1147.18,275.119C1146.82,275.48 1146.63,275.966 1146.63,276.585C1146.63,277.72 1147.3,278.701 1148.65,279.527L1151.59,281.385C1153.24,282.417 1154.78,283.893 1156.23,285.803C1157.68,287.712 1158.4,290.623 1158.4,294.546L1158.4,312.352L1165.21,312.352L1165.21,329.848L1149.42,329.848ZM1078.51,304.61C1078.51,308.016 1078.02,311.35 1077.04,314.602C1076.06,317.854 1074.38,320.713 1072,323.19C1069.62,325.668 1066.43,327.66 1062.4,329.156C1058.38,330.643 1053.32,331.396 1047.23,331.396C1041.55,331.396 1036.73,330.643 1032.76,329.156C1028.78,327.66 1025.53,325.668 1023,323.19C1020.47,320.713 1018.62,317.854 1017.43,314.602C1016.24,311.35 1015.64,308.016 1015.64,304.61L1015.64,218.058L1038.25,218.058L1038.25,303.681C1038.25,306.674 1039.11,308.77 1040.81,309.957C1042.51,311.144 1044.65,311.732 1047.23,311.732C1049.6,311.732 1051.65,311.144 1053.35,309.957C1055.05,308.77 1055.9,306.674 1055.9,303.681L1055.9,218.058L1078.51,218.058L1078.51,304.61ZM1208.41,264.972L1206.71,254.289L1205.78,254.289L1204.07,264.972L1198.65,293.307L1213.83,293.307L1208.41,264.972ZM851.06,264.972L849.361,254.289L848.428,254.289L846.725,264.972L841.306,293.307L856.48,293.307L851.06,264.972ZM1135.95,241.592C1135.95,240.251 1135.64,239.27 1135.02,238.651C1134.4,238.031 1133.32,237.721 1131.77,237.721L1119.38,237.721L1119.38,266.675L1131.77,266.675C1133.11,266.675 1134.14,266.345 1134.87,265.674C1135.59,265.003 1135.95,264.095 1135.95,262.96L1135.95,241.592Z" style="fill:white;"/>
        <path id="Hammers" d="M634.937,302.633L588.3,369.239L568.87,355.639L620.461,281.959L574.412,216.196L540.728,239.784L530.533,235.746L508.797,204.698L508.787,194.166L542.47,170.579L540.693,168.041L560.123,154.441L561.897,156.975L595.371,133.534L605.801,136.929L627.393,167.767L627.312,179.153L593.839,202.593L634.937,261.286L675.932,202.739L642.251,179.153L642.557,168.199L664.296,137.151L674.192,133.534L707.874,157.121L709.647,154.588L729.074,168.189L727.299,170.724L760.773,194.166L761.149,205.13L739.561,235.958L728.835,239.784L695.358,216.342L649.413,281.959L700.9,355.491L681.473,369.091L634.937,302.633Z" style="fill:white;"/>
        <path id="Flame" d="M621.009,133.79C611.954,125.117 600.782,111.026 601.342,94.6635C602.248,68.2538 622.912,61.2744 630.046,49.7829C638.276,36.52 631.206,0 631.206,0C631.206,0 673.545,36.8363 671.883,85.3014C671.517,95.959 662.418,105.258 653.998,113.152C655.89,88.9849 637.183,68.7704 637.183,68.7704C637.183,68.7704 638.817,88.3589 633.736,94.8637C629.333,100.493 618.08,102.982 616.098,116.803C615.304,122.337 617.732,128.415 621.009,133.79Z" style="fill:rgb(255,159,0);"/>
        <path id="TradeMark" d="M1247.97,249.06L1247.97,232.674L1242.83,232.674L1242.83,229.448L1256.87,229.448L1256.87,232.674L1251.71,232.674L1251.71,249.06L1247.97,249.06ZM1259.59,249.06L1259.59,229.448L1264.89,229.448L1267.72,238.965C1267.97,239.813 1268.21,240.66 1268.39,241.471C1268.57,242.282 1268.69,243.075 1268.8,243.851C1268.95,243.13 1269.13,242.372 1269.34,241.615C1269.54,240.84 1269.79,239.975 1270.08,239.02L1272.97,229.448L1278.03,229.448L1278.03,249.06L1274.88,249.06L1274.88,232.602C1274.7,233.323 1274.52,234.062 1274.33,234.783C1274.14,235.505 1273.94,236.225 1273.7,236.946L1270.12,249.06L1267.43,249.06L1263.95,236.946C1263.59,235.667 1263.32,234.747 1263.18,234.17C1263.01,233.576 1262.89,233.053 1262.78,232.602L1262.78,249.06L1259.59,249.06Z" style="fill:white;"/>
    </g>
</svg>
